<?xml version="1.0" encoding="UTF-8"?> <svg xmlns="http://www.w3.org/2000/svg" width="833" height="203" viewBox="0 0 833 203" fill="none"> <path d="M0 194.463H40.1309V166.289H33.6737V188.913H23.2674V166.289H16.8635V188.913H6.45723V166.289H0V194.463Z" fill="#3E334D"></path> <path d="M53.0612 194.463H59.4651V187.686L64.0545 182.83L72.593 194.463H80.2243L68.3771 178.135L79.3171 166.289H71.7392L59.4651 179.789V166.289H53.0612V194.463Z" fill="#3E334D"></path> <path d="M102.893 195.103C111.591 195.103 117.995 188.433 117.995 180.429C117.995 172.265 111.645 165.702 102.999 165.702C94.3541 165.702 87.9502 172.372 87.9502 180.429C87.9502 188.54 94.3007 195.103 102.893 195.103ZM102.999 189.5C97.9829 189.5 94.4075 185.338 94.4075 180.429C94.4075 175.413 97.7161 171.358 102.893 171.358C107.962 171.358 111.538 175.467 111.538 180.429C111.538 185.392 108.229 189.5 102.999 189.5Z" fill="#3E334D"></path> <path d="M129.161 194.783C135.404 194.783 139.247 192.275 139.247 171.838H148.052V194.463H154.509V166.289H133.216C133.216 187.739 130.975 189.34 127.72 189.34C127.293 189.34 126.279 189.233 125.852 189.127L125.372 194.409C126.332 194.569 128.147 194.783 129.161 194.783Z" fill="#3E334D"></path> <path d="M191.067 194.463V177.761C191.067 170.238 187.011 165.862 178.686 165.862C174.097 165.862 171.055 166.823 167.96 168.21L169.721 173.386C172.282 172.319 174.63 171.625 177.779 171.625C182.262 171.625 184.717 173.759 184.717 177.655V178.188C182.529 177.494 180.341 177.014 176.925 177.014C170.361 177.014 165.505 180.002 165.505 186.245C165.505 192.008 170.201 195.05 175.538 195.05C179.807 195.05 182.742 193.289 184.663 190.994V194.463H191.067ZM184.823 184.271C184.823 187.793 181.621 190.194 177.352 190.194C174.31 190.194 171.909 188.7 171.909 186.032C171.909 183.204 174.31 181.55 178.366 181.55C180.874 181.55 183.169 182.03 184.823 182.67V184.271Z" fill="#3E334D"></path> <path d="M224.352 194.463H230.809V171.838H243.03V194.463H249.487V166.289H224.352V194.463Z" fill="#3E334D"></path> <path d="M262.404 203H268.862V190.087C270.836 192.702 273.771 195.05 278.414 195.05C285.138 195.05 291.542 189.767 291.542 180.429C291.542 170.985 285.085 165.702 278.414 165.702C273.878 165.702 270.943 168.05 268.862 170.985V166.289H262.404V203ZM276.92 189.447C272.544 189.447 268.702 185.872 268.702 180.429C268.702 174.933 272.544 171.305 276.92 171.305C281.296 171.305 284.978 174.88 284.978 180.322C284.978 185.979 281.349 189.447 276.92 189.447Z" fill="#3E334D"></path> <path d="M316.353 195.103C325.051 195.103 331.455 188.433 331.455 180.429C331.455 172.265 325.105 165.702 316.46 165.702C307.814 165.702 301.41 172.372 301.41 180.429C301.41 188.54 307.761 195.103 316.353 195.103ZM316.46 189.5C311.443 189.5 307.868 185.338 307.868 180.429C307.868 175.413 311.176 171.358 316.353 171.358C321.423 171.358 324.998 175.467 324.998 180.429C324.998 185.392 321.689 189.5 316.46 189.5Z" fill="#3E334D"></path> <path d="M342.834 194.463H349.291V171.838H362.793V166.289H342.834V194.463Z" fill="#3E334D"></path> <path d="M372.704 203H379.162V190.087C381.136 192.702 384.071 195.05 388.714 195.05C395.438 195.05 401.842 189.767 401.842 180.429C401.842 170.985 395.385 165.702 388.714 165.702C384.178 165.702 381.243 168.05 379.162 170.985V166.289H372.704V203ZM387.22 189.447C382.844 189.447 379.001 185.872 379.001 180.429C379.001 174.933 382.844 171.305 387.22 171.305C391.596 171.305 395.278 174.88 395.278 180.322C395.278 185.979 391.649 189.447 387.22 189.447Z" fill="#3E334D"></path> <path d="M436.899 194.463V177.761C436.899 170.238 432.843 165.862 424.518 165.862C419.929 165.862 416.887 166.823 413.792 168.21L415.553 173.386C418.114 172.319 420.462 171.625 423.611 171.625C428.094 171.625 430.548 173.759 430.548 177.655V178.188C428.36 177.494 426.172 177.014 422.757 177.014C416.193 177.014 411.337 180.002 411.337 186.245C411.337 192.008 416.033 195.05 421.37 195.05C425.639 195.05 428.574 193.289 430.495 190.994V194.463H436.899ZM430.655 184.271C430.655 187.793 427.453 190.194 423.184 190.194C420.142 190.194 417.741 188.7 417.741 186.032C417.741 183.204 420.142 181.55 424.198 181.55C426.706 181.55 429.001 182.03 430.655 182.67V184.271Z" fill="#3E334D"></path> <path d="M449.382 194.463H455.679V175.787L464.484 188.326L473.343 175.68V194.463H479.854V166.289H473.45L464.591 179.362L455.786 166.289H449.382V194.463Z" fill="#3E334D"></path> <path d="M492.75 194.463H499.047V175.787L507.852 188.326L516.711 175.68V194.463H523.222V166.289H516.818L507.959 179.362L499.154 166.289H492.75V194.463Z" fill="#3E334D"></path> <path d="M536.118 194.463H542.201L555.596 175.68V194.463H561.84V166.289H555.756C551.273 172.585 546.844 178.882 542.415 185.178V166.289H536.118V194.463Z" fill="#3E334D"></path> <path d="M574.743 203H581.2V190.087C583.175 192.702 586.11 195.05 590.753 195.05C597.477 195.05 603.881 189.767 603.881 180.429C603.881 170.985 597.423 165.702 590.753 165.702C586.217 165.702 583.282 168.05 581.2 170.985V166.289H574.743V203ZM589.259 189.447C584.883 189.447 581.04 185.872 581.04 180.429C581.04 174.933 584.883 171.305 589.259 171.305C593.635 171.305 597.317 174.88 597.317 180.322C597.317 185.979 593.688 189.447 589.259 189.447Z" fill="#3E334D"></path> <path d="M628.692 195.103C637.39 195.103 643.794 188.433 643.794 180.429C643.794 172.265 637.443 165.702 628.798 165.702C620.153 165.702 613.749 172.372 613.749 180.429C613.749 188.54 620.1 195.103 628.692 195.103ZM628.798 189.5C623.782 189.5 620.206 185.338 620.206 180.429C620.206 175.413 623.515 171.358 628.692 171.358C633.761 171.358 637.337 175.467 637.337 180.429C637.337 185.392 634.028 189.5 628.798 189.5Z" fill="#3E334D"></path> <path d="M655.173 194.463H669.795C676.199 194.463 680.201 191.581 680.201 186.832C680.201 182.83 677.8 180.749 674.384 179.789C676.786 178.722 678.921 176.908 678.921 173.332C678.921 169.01 675.238 166.289 669.635 166.289H655.173V194.463ZM661.523 189.34V182.297H668.514C671.983 182.297 673.637 183.684 673.637 185.712C673.637 187.899 671.983 189.34 668.834 189.34H661.523ZM661.523 177.921V171.251H668.247C671.129 171.251 672.357 172.639 672.357 174.453C672.357 176.481 670.862 177.921 668.141 177.921H661.523Z" fill="#3E334D"></path> <path d="M715.094 194.463V177.761C715.094 170.238 711.038 165.862 702.713 165.862C698.124 165.862 695.082 166.823 691.987 168.21L693.748 173.386C696.309 172.319 698.657 171.625 701.806 171.625C706.289 171.625 708.744 173.759 708.744 177.655V178.188C706.556 177.494 704.368 177.014 700.952 177.014C694.388 177.014 689.532 180.002 689.532 186.245C689.532 192.008 694.228 195.05 699.565 195.05C703.834 195.05 706.769 193.289 708.69 190.994V194.463H715.094ZM708.85 184.271C708.85 187.793 705.648 190.194 701.379 190.194C698.337 190.194 695.936 188.7 695.936 186.032C695.936 183.204 698.337 181.55 702.393 181.55C704.901 181.55 707.196 182.03 708.85 182.67V184.271Z" fill="#3E334D"></path> <path d="M727.577 194.463H734.034V183.097H746.469V194.463H752.926V166.289H746.469V177.708H734.034V166.289H727.577V194.463Z" fill="#3E334D"></path> <path d="M765.838 194.463H771.921L785.316 175.68V194.463H791.56V166.289H785.476C780.994 172.585 776.564 178.882 772.135 185.178V166.289H765.838V194.463Z" fill="#3E334D"></path> <path d="M801.902 194.463H809.479L816.15 184.965H821.914V194.463H828.371V166.289H814.229C807.131 166.289 803.129 170.024 803.129 175.467C803.129 179.896 805.851 182.724 809.693 183.898L801.902 194.463ZM815.136 180.109C811.828 180.109 809.586 178.508 809.586 175.787C809.586 173.119 811.667 171.518 815.083 171.518H821.914V180.109H815.136Z" fill="#3E334D"></path> <path d="M31.0274 0.0189585H56.4441L42.7436 51.1564L99.8533 0H134.184L77.8983 48.3482L105.16 115.543H77.2643L57.7881 63.562L33.855 84.0246L25.442 115.549H0L31.0274 0.0189585Z" fill="#3E334D"></path> <path d="M116.687 76.5822C116.687 50.1799 139.466 25.4258 167.856 25.4258C194.097 25.4258 210.434 42.7505 210.434 66.3509C210.434 92.7532 187.662 117.507 159.272 117.507C133.031 117.507 116.687 100.183 116.687 76.5822ZM185.842 66.9975C185.842 54.1228 178.088 46.8646 166.696 46.8646C151.347 46.8646 141.279 63.3462 141.279 75.9103C141.279 88.7787 149.039 96.0432 160.425 96.0432C175.774 96.0559 185.842 79.5489 185.842 66.9975Z" fill="#3E334D"></path> <path d="M214.726 94.7355H223.292C232.865 82.3616 241.614 66.0257 249.038 35.8263L251.187 27.0657H322.669L304.512 94.7228H317.059L303.688 135.16H282.563L288.009 115.509H233.049L225.954 135.16H204.164L214.726 94.7355ZM279.59 94.7355L292.301 47.7058H269.522L267.709 54.7992C264.241 68.498 255.333 87.4772 249.551 94.7355H279.59Z" fill="#3E334D"></path> <path d="M357.661 0.0266113H383.059L369.365 51.1831L426.468 0.0266113H460.799L404.519 48.3749L431.781 115.569H403.885L384.416 63.5887L360.482 84.0513L352.063 115.576H326.634L357.661 0.0266113Z" fill="#FCB600"></path> <path d="M434.579 114.703L440.849 95.4006C442.587 95.7707 444.354 95.9829 446.13 96.0345C454.55 96.0345 460.82 93.5559 474.85 41.2457L478.654 27.0525H549.952L526.343 115.534H501.617L519.775 47.7053H496.317L493.844 56.2884C477.671 114.545 465.619 116.687 447.627 116.687C444.482 116.687 437.381 115.863 434.579 114.703Z" fill="#FCB600"></path> <path d="M550.598 93.4262C550.598 72.9636 567.272 61.5786 588.726 61.5786C597.189 61.5933 605.598 62.93 613.648 65.5406L613.978 64.3805C614.598 62.2342 614.93 60.0152 614.967 57.7814C614.967 51.6769 610.674 47.3854 598.299 47.3854C590.2 47.4843 582.193 49.1079 574.696 52.1714L570.733 32.3681C581.163 28.1391 592.325 26.0087 603.58 26.0987C627.348 26.0987 639.394 36.0003 639.394 53.3568C639.314 57.8798 638.649 62.3735 637.416 66.726L624.375 115.575H600.112L602.756 105.344C595.655 112.951 586.748 117.223 576.344 117.223C560.995 117.191 550.598 107.29 550.598 93.4262ZM609.387 82.225L610.021 79.9176C604.753 77.913 599.174 76.8509 593.538 76.7798C583.14 76.7798 575.545 82.0602 575.545 90.6433C575.545 96.0886 579.983 100.051 587.103 100.051C597.475 100.032 606.554 91.778 609.387 82.225Z" fill="#FCB600"></path> <path d="M653.43 77.5711C653.43 48.6902 677.363 25.4258 705.588 25.4258C725.064 25.4258 735.791 34.3005 741.897 44.8994L722.75 58.427C718.312 51.6632 713.507 46.8772 703.604 46.8772C690.404 46.8772 678.187 61.2353 678.187 77.5711C678.187 88.9815 685.795 96.2207 695.52 96.2207C703.274 96.2207 708.885 93.0829 715.491 87.4728L728.361 103.809C719.117 112.049 709.709 117.507 694.69 117.507C670.598 117.507 653.43 101.666 653.43 77.5711Z" fill="#FCB600"></path> <path d="M744.533 77.5711C744.533 48.6902 768.466 25.4258 796.691 25.4258C816.168 25.4258 826.895 34.3005 833 44.8994L813.854 58.427C809.416 51.6632 804.61 46.8772 794.707 46.8772C781.507 46.8772 769.29 61.2353 769.29 77.5711C769.29 88.9815 776.898 96.2207 786.624 96.2207C794.377 96.2207 799.995 93.0829 806.594 87.4728L819.464 103.809C810.227 112.049 800.819 117.507 785.8 117.507C761.702 117.507 744.533 101.666 744.533 77.5711Z" fill="#FCB600"></path> </svg> 