<svg width="119" height="19" viewBox="0 0 119 19" fill="none" xmlns="http://www.w3.org/2000/svg">
<g filter="url(#filter0_i_1_2)">
<path d="M16.6296 6.22159H14.0217C14.0103 5.65341 13.9052 5.15341 13.7063 4.72159C13.5075 4.28409 13.2347 3.91761 12.8881 3.62216C12.5472 3.32102 12.1467 3.09375 11.6864 2.94034C11.2262 2.78693 10.729 2.71023 10.195 2.71023C9.16655 2.71023 8.20064 2.97159 7.29723 3.49432C6.39382 4.01704 5.62393 4.77841 4.98757 5.77841C4.35121 6.77841 3.91371 7.99716 3.67507 9.43466C3.44212 10.8324 3.47053 12.0057 3.7603 12.9545C4.05007 13.9034 4.53871 14.6222 5.22621 15.1108C5.91939 15.5937 6.75178 15.8352 7.72337 15.8352C8.29155 15.8352 8.84553 15.7614 9.3853 15.6136C9.93075 15.4602 10.4364 15.2358 10.9023 14.9403C11.3683 14.6449 11.7802 14.2841 12.1381 13.858C12.5018 13.4261 12.7859 12.9318 12.9904 12.375H15.6325C15.3484 13.2386 14.9478 14.0284 14.4308 14.7443C13.9137 15.4602 13.3029 16.0795 12.5984 16.6023C11.8938 17.125 11.1211 17.5284 10.2802 17.8125C9.43928 18.0966 8.55007 18.2386 7.61257 18.2386C6.0728 18.2386 4.7603 17.8722 3.67507 17.1392C2.59553 16.4006 1.81996 15.3494 1.34837 13.9858C0.882457 12.6222 0.802912 10.9972 1.10973 9.1108C1.42223 7.27557 2.01882 5.7017 2.8995 4.3892C3.78587 3.07102 4.86541 2.0625 6.13814 1.36364C7.41655 0.659091 8.79723 0.306818 10.2802 0.306818C11.2177 0.306818 12.0756 0.440341 12.854 0.707386C13.6325 0.96875 14.3029 1.35511 14.8654 1.86648C15.4336 2.37216 15.8711 2.99148 16.1779 3.72443C16.4847 4.4517 16.6353 5.28409 16.6296 6.22159ZM23.2156 18.2642C21.9712 18.2642 20.9315 17.9801 20.0962 17.4119C19.261 16.8381 18.6729 16.0369 18.332 15.0085C17.9968 13.9744 17.94 12.7727 18.1616 11.4034C18.3775 10.0625 18.8121 8.89205 19.4656 7.89205C20.1246 6.89205 20.9485 6.11648 21.9371 5.56534C22.9315 5.0142 24.0366 4.73864 25.2525 4.73864C26.4968 4.73864 27.5337 5.02557 28.3633 5.59943C29.1985 6.1733 29.7866 6.97727 30.1275 8.01136C30.4684 9.04545 30.5281 10.25 30.3065 11.625C30.0906 12.9545 29.6502 14.1193 28.9854 15.1193C28.3263 16.1136 27.5025 16.8864 26.5138 17.4375C25.5252 17.9886 24.4258 18.2642 23.2156 18.2642ZM23.3604 16.125C24.1786 16.125 24.8917 15.9091 25.4996 15.4773C26.1133 15.0455 26.6133 14.4716 26.9996 13.7557C27.386 13.0398 27.6502 12.2557 27.7923 11.4034C27.9229 10.5795 27.9201 9.8267 27.7837 9.14489C27.6531 8.45739 27.369 7.90625 26.9315 7.49148C26.494 7.0767 25.886 6.86932 25.1076 6.86932C24.2894 6.86932 23.5707 7.08807 22.9513 7.52557C22.3377 7.95739 21.8377 8.53409 21.4513 9.25568C21.0707 9.97727 20.8121 10.7642 20.6758 11.6165C20.5451 12.4347 20.5451 13.1875 20.6758 13.875C20.8065 14.5568 21.0906 15.1023 21.5281 15.5114C21.9656 15.9205 22.5763 16.125 23.3604 16.125ZM36.9862 18.2557C35.9237 18.2557 35.0231 17.9858 34.2844 17.446C33.5515 16.9006 33.0316 16.125 32.7248 15.1193C32.4237 14.108 32.3896 12.8949 32.6225 11.4801C32.8612 10.0653 33.3015 8.85511 33.9435 7.84943C34.5856 6.84375 35.364 6.07386 36.2788 5.53977C37.1935 5.00568 38.1793 4.73864 39.2362 4.73864C40.0487 4.73864 40.6793 4.875 41.1282 5.14773C41.5827 5.41477 41.918 5.72727 42.1339 6.08523C42.3498 6.44318 42.5117 6.75852 42.6197 7.03125H42.7646L43.8469 0.545454H46.3952L43.4975 18H41.0089L41.3583 15.9631H41.1452C40.9464 16.2415 40.6708 16.5597 40.3185 16.9176C39.9719 17.2756 39.5288 17.5881 38.989 17.8551C38.4492 18.1222 37.7816 18.2557 36.9862 18.2557ZM37.8469 16.0824C38.5799 16.0824 39.2362 15.8892 39.8157 15.5028C40.4009 15.1108 40.8867 14.5682 41.2731 13.875C41.6651 13.1818 41.9379 12.375 42.0913 11.4545C42.2447 10.5455 42.2418 9.75 42.0827 9.06818C41.9237 8.38636 41.6168 7.85511 41.1623 7.47443C40.7077 7.09375 40.1083 6.90341 39.364 6.90341C38.5969 6.90341 37.9293 7.10227 37.3612 7.5C36.793 7.89773 36.3271 8.44034 35.9634 9.12784C35.6055 9.81534 35.3555 10.5909 35.2134 11.4545C35.0657 12.3295 35.06 13.1165 35.1964 13.8153C35.3327 14.5142 35.6197 15.0682 36.0572 15.4773C36.4947 15.8807 37.0913 16.0824 37.8469 16.0824ZM52.734 18.2642C51.4499 18.2642 50.3874 17.9886 49.5465 17.4375C48.7113 16.8807 48.1261 16.0994 47.7908 15.0938C47.4556 14.0824 47.4016 12.8977 47.6289 11.5398C47.8505 10.1989 48.2965 9.01705 48.967 7.99432C49.6374 6.97159 50.4727 6.1733 51.4727 5.59943C52.4783 5.02557 53.5891 4.73864 54.805 4.73864C55.5437 4.73864 56.2397 4.8608 56.8931 5.10511C57.5522 5.34943 58.1119 5.73295 58.5721 6.25568C59.0323 6.77841 59.3505 7.45739 59.5266 8.29261C59.7085 9.12216 59.7028 10.1307 59.5096 11.3182L59.3647 12.2216H48.9499L49.2482 10.3125H57.1573C57.2766 9.64205 57.2454 9.0483 57.0636 8.53125C56.8817 8.00852 56.5692 7.59659 56.1261 7.29545C55.6886 6.99432 55.1374 6.84375 54.4727 6.84375C53.7908 6.84375 53.1545 7.02273 52.5636 7.38068C51.9727 7.73864 51.4783 8.19602 51.0806 8.75284C50.6886 9.30398 50.4414 9.87216 50.3391 10.4574L50.0408 12.2045C49.8931 13.1591 49.9187 13.9261 50.1175 14.5057C50.3221 15.0852 50.68 15.5057 51.1914 15.767C51.7028 16.0284 52.342 16.1591 53.109 16.1591C53.6033 16.1591 54.0607 16.0909 54.4812 15.9545C54.9073 15.8125 55.2852 15.6051 55.6147 15.3324C55.9442 15.054 56.2198 14.7074 56.4414 14.2926L58.7766 14.7273C58.4641 15.4375 58.0153 16.0597 57.43 16.5938C56.8448 17.1222 56.1545 17.5341 55.359 17.8295C54.5692 18.1193 53.6942 18.2642 52.734 18.2642ZM66.739 18.2642C65.4663 18.2642 64.4237 17.9773 63.6112 17.4034C62.7987 16.8239 62.2333 16.0256 61.9151 15.0085C61.5969 13.9915 61.5458 12.8267 61.7617 11.5142C61.9776 10.1847 62.418 9.01136 63.0827 7.99432C63.7532 6.97159 64.5913 6.1733 65.5969 5.59943C66.6083 5.02557 67.7305 4.73864 68.9634 4.73864C69.9577 4.73864 70.8129 4.9233 71.5288 5.29261C72.2447 5.65625 72.7873 6.16761 73.1566 6.8267C73.5259 7.4858 73.685 8.25568 73.6339 9.13636H71.1538C71.114 8.52273 70.8867 7.99432 70.4719 7.55114C70.0572 7.10795 69.4464 6.88636 68.6396 6.88636C67.9293 6.88636 67.2759 7.07386 66.6793 7.44886C66.0827 7.81818 65.5799 8.34659 65.1708 9.03409C64.7617 9.71591 64.4833 10.5227 64.3356 11.4545C64.1765 12.4091 64.185 13.233 64.3612 13.9261C64.5373 14.6193 64.8612 15.1562 65.3327 15.5369C65.8043 15.9176 66.3981 16.108 67.114 16.108C67.6026 16.108 68.0572 16.0199 68.4776 15.8438C68.9038 15.6619 69.2788 15.4034 69.6026 15.0682C69.9322 14.733 70.1879 14.3295 70.3697 13.858H72.8583C72.614 14.7045 72.2049 15.4602 71.631 16.125C71.0629 16.7898 70.364 17.3125 69.5344 17.6932C68.7049 18.0739 67.7731 18.2642 66.739 18.2642ZM80.3221 0.545454L77.4244 18H74.8761L77.7738 0.545454H80.3221ZM84.6282 18.2898C83.7987 18.2898 83.0742 18.1364 82.4549 17.8295C81.8356 17.517 81.3782 17.0653 81.0827 16.4744C80.7873 15.8835 80.7106 15.1591 80.8526 14.3011C80.9776 13.5625 81.2219 12.9545 81.5856 12.4773C81.9549 12 82.4038 11.6222 82.9322 11.3438C83.4606 11.0597 84.0344 10.8466 84.6538 10.7045C85.2731 10.5625 85.8981 10.4574 86.5288 10.3892C87.3242 10.2983 87.9691 10.2216 88.4634 10.1591C88.9634 10.0966 89.3384 10 89.5884 9.86932C89.8384 9.73295 89.989 9.51136 90.0401 9.20455V9.14489C90.1594 8.40625 90.0515 7.83239 89.7163 7.4233C89.3867 7.00852 88.8129 6.80114 87.9947 6.80114C87.1424 6.80114 86.4265 6.98864 85.8469 7.36364C85.2731 7.73864 84.8498 8.15909 84.5771 8.625L82.293 8.07955C82.7021 7.28409 83.2219 6.64205 83.8526 6.15341C84.489 5.65909 85.185 5.30114 85.9407 5.07954C86.6964 4.85227 87.4691 4.73864 88.2589 4.73864C88.7816 4.73864 89.3242 4.80114 89.8867 4.92614C90.4492 5.04545 90.9606 5.26705 91.4208 5.59091C91.8867 5.91477 92.2333 6.37784 92.4606 6.98011C92.6879 7.5767 92.7219 8.35227 92.5629 9.30682L91.1225 18H88.6339L88.9407 16.2102H88.8384C88.6225 16.5398 88.3214 16.8636 87.935 17.1818C87.5543 17.5 87.0884 17.7642 86.5373 17.9744C85.9862 18.1847 85.3498 18.2898 84.6282 18.2898ZM85.4975 16.2443C86.2077 16.2443 86.8356 16.1051 87.381 15.8267C87.9322 15.5483 88.3782 15.1847 88.7191 14.7358C89.06 14.2812 89.2731 13.7955 89.3583 13.2784L89.6396 11.5909C89.5316 11.6818 89.3413 11.7642 89.0685 11.8381C88.8015 11.9119 88.5004 11.9773 88.1651 12.0341C87.8299 12.0909 87.5004 12.1392 87.1765 12.179C86.8583 12.2187 86.5941 12.2557 86.3839 12.2898C85.8839 12.3523 85.4151 12.4574 84.9776 12.6051C84.5458 12.7528 84.185 12.9659 83.8952 13.2443C83.6055 13.517 83.4237 13.8807 83.3498 14.3352C83.2475 14.9659 83.3981 15.4432 83.8015 15.767C84.2106 16.0852 84.7759 16.2443 85.4975 16.2443ZM105.98 8.10511L103.602 8.5142C103.551 8.21307 103.446 7.92898 103.287 7.66193C103.133 7.39489 102.897 7.17898 102.579 7.0142C102.261 6.84375 101.838 6.75852 101.309 6.75852C100.576 6.75852 99.9343 6.92614 99.3832 7.26136C98.8377 7.59659 98.5252 8.02273 98.4457 8.53977C98.3718 8.96023 98.4712 9.30114 98.744 9.5625C99.0167 9.81818 99.4968 10.0312 100.184 10.2017L102.196 10.679C103.355 10.9574 104.184 11.392 104.684 11.983C105.19 12.5682 105.366 13.3295 105.213 14.267C105.082 15.0455 104.741 15.7358 104.19 16.3381C103.645 16.9403 102.946 17.4119 102.093 17.7528C101.241 18.0938 100.292 18.2642 99.2468 18.2642C97.7582 18.2642 96.5991 17.9489 95.7695 17.3182C94.94 16.6875 94.5138 15.7955 94.4911 14.642L97.0138 14.267C97.0593 14.9091 97.2894 15.3949 97.7042 15.7244C98.1246 16.0483 98.707 16.2102 99.4513 16.2102C100.304 16.2159 101.017 16.0369 101.591 15.6733C102.164 15.3097 102.491 14.8693 102.571 14.3523C102.639 13.9489 102.548 13.6136 102.298 13.3466C102.054 13.0795 101.622 12.875 101.002 12.733L98.8888 12.2472C97.707 11.9687 96.8718 11.5199 96.3832 10.9006C95.8945 10.2812 95.7298 9.50284 95.8888 8.56534C96.0138 7.7983 96.3377 7.13068 96.8604 6.5625C97.3888 5.98864 98.0565 5.54261 98.8633 5.22443C99.6701 4.90057 100.562 4.73864 101.539 4.73864C102.966 4.73864 104.037 5.04545 104.752 5.65909C105.468 6.26705 105.877 7.08239 105.98 8.10511ZM118.847 8.10511L116.469 8.5142C116.418 8.21307 116.313 7.92898 116.154 7.66193C116 7.39489 115.765 7.17898 115.446 7.0142C115.128 6.84375 114.705 6.75852 114.176 6.75852C113.444 6.75852 112.801 6.92614 112.25 7.26136C111.705 7.59659 111.392 8.02273 111.313 8.53977C111.239 8.96023 111.338 9.30114 111.611 9.5625C111.884 9.81818 112.364 10.0312 113.051 10.2017L115.063 10.679C116.222 10.9574 117.051 11.392 117.551 11.983C118.057 12.5682 118.233 13.3295 118.08 14.267C117.949 15.0455 117.608 15.7358 117.057 16.3381C116.512 16.9403 115.813 17.4119 114.961 17.7528C114.108 18.0938 113.159 18.2642 112.114 18.2642C110.625 18.2642 109.466 17.9489 108.637 17.3182C107.807 16.6875 107.381 15.7955 107.358 14.642L109.881 14.267C109.926 14.9091 110.157 15.3949 110.571 15.7244C110.992 16.0483 111.574 16.2102 112.319 16.2102C113.171 16.2159 113.884 16.0369 114.458 15.6733C115.032 15.3097 115.358 14.8693 115.438 14.3523C115.506 13.9489 115.415 13.6136 115.165 13.3466C114.921 13.0795 114.489 12.875 113.87 12.733L111.756 12.2472C110.574 11.9687 109.739 11.5199 109.25 10.9006C108.762 10.2812 108.597 9.50284 108.756 8.56534C108.881 7.7983 109.205 7.13068 109.728 6.5625C110.256 5.98864 110.924 5.54261 111.73 5.22443C112.537 4.90057 113.429 4.73864 114.407 4.73864C115.833 4.73864 116.904 5.04545 117.62 5.65909C118.336 6.26705 118.745 7.08239 118.847 8.10511Z" fill="black"/>
</g>
<defs>
<filter id="filter0_i_1_2" x="0.649502" y="0.306824" width="118.197" height="21.983" filterUnits="userSpaceOnUse" color-interpolation-filters="sRGB">
<feFlood flood-opacity="0" result="BackgroundImageFix"/>
<feBlend mode="normal" in="SourceGraphic" in2="BackgroundImageFix" result="shape"/>
<feColorMatrix in="SourceAlpha" type="matrix" values="0 0 0 0 0 0 0 0 0 0 0 0 0 0 0 0 0 0 127 0" result="hardAlpha"/>
<feOffset dy="4"/>
<feGaussianBlur stdDeviation="2"/>
<feComposite in2="hardAlpha" operator="arithmetic" k2="-1" k3="1"/>
<feColorMatrix type="matrix" values="0 0 0 0 0 0 0 0 0 0 0 0 0 0 0 0 0 0 0.25 0"/>
<feBlend mode="normal" in2="shape" result="effect1_innerShadow_1_2"/>
</filter>
</defs>
</svg>
